<svg data-v-9cb7b1fc="" width="120" height="32" viewBox="0 0 80 24" fill="none" xmlns="http://www.w3.org/2000/svg" class="ml-8 primary-deep-blue">
    <path data-v-9cb7b1fc="" d="M8.68994 6.16917C8.68994 5.90655 8.86407 5.698 9.21234 5.54738C9.56061 5.31952 9.96824 5.22683 10.4313 5.26545C10.9339 5.22683 11.3613 5.32339 11.7056 5.54738C12.0539 5.698 12.228 5.90655 12.228 6.16917C12.228 6.39702 12.0539 6.62102 11.7056 6.84888C11.3574 7.03812 10.9299 7.1308 10.4313 7.1308C9.96824 7.1308 9.56061 7.03812 9.21234 6.84888C8.86407 6.62102 8.68994 6.39702 8.68994 6.16917ZM6.37079 16.0752C6.37079 16.3031 6.48556 16.5078 6.71906 16.697C6.91298 16.8476 7.1821 16.9248 7.53037 16.9248C8.03298 16.7356 8.51581 16.4537 8.97885 16.0752C8.51581 15.5847 8.02902 15.2835 7.53037 15.1676C7.1821 15.1676 6.91298 15.2642 6.71906 15.4496C6.48556 15.5616 6.37079 15.7701 6.37079 16.0713M4.97772 12.4488L2.65857 18.8443H-0.0088501L3.3551 9.22401H1.38422C0.454189 9.22401 0.0109385 8.62154 0.0505144 7.41273L0.687687 5.48945H3.18097L2.5992 7.35866H3.87355L4.51072 5.1496H7.00401L6.42224 7.35866H14.0208V9.22787H5.9592L5.55157 10.4174H12.4536C13.5736 10.7572 14.001 11.5103 13.728 12.6805L11.8718 16.0211L13.9021 18.7941H10.7716L10.1345 17.9444L9.14902 18.6241C8.22295 18.852 7.37206 18.9061 6.59637 18.7941C5.78507 18.6434 5.12811 18.1723 4.62549 17.3806C4.12288 16.0211 4.29701 14.9089 5.1479 14.0399C6.34705 13.0204 7.72033 12.8891 9.26775 13.6421L10.0791 14.2099L11.0645 12.4565H4.97376L4.97772 12.4488Z" fill="#ff6f38"></path>
    <path data-v-9cb7b1fc="" d="M21.8886 7.07596C21.8886 5.79377 22.5455 5.15268 23.8594 5.15268H27.6864C29.0004 5.15268 29.6573 5.8517 29.6573 7.24589V14.3211H27.6864V8.15345C27.6864 7.43898 27.3184 7.07596 26.5862 7.07596H23.8594V14.3211H21.8886V7.07596ZM26.9345 14.4331L26.8197 14.8849H28.2128V16.6383C28.2128 16.8661 28.3474 16.9781 28.6204 16.9781H30.5359V18.7894H27.3461C26.42 18.7894 25.953 18.3183 25.953 17.3759V16.2444C25.4504 17.3373 24.465 18.2063 22.9967 18.8474H16.4983V16.9241H17.832V14.0392C17.8716 13.2861 17.5985 12.9076 17.0207 12.9076H16.6725V11.0384H17.832V8.49331C17.832 7.7016 17.5431 7.32312 16.9614 7.36174H16.4983V5.43846H21.0812V7.36174H20.0958V11.0422H21.0258V12.9114H20.0958V16.9318H21.7184C23.0323 16.4413 23.9821 15.4024 24.5599 13.819V8.27318H26.9385V14.4408L26.9345 14.4331Z" fill="#ff6f38"></path>
    <path data-v-9cb7b1fc="" d="M46.2397 5.3226C47.0114 5.70108 47.1697 6.38079 46.7027 7.36174L45.0801 10.0227V10.9843H46.9362V12.8535H45.0801V17.4377C45.0801 18.3453 44.5973 18.7971 43.6317 18.7971H40.5566V16.9279H42.3533C42.6225 16.9279 42.761 16.8159 42.761 16.5881V14.0392C42.761 13.2474 42.3336 12.8497 41.4866 12.8497H39.7453V10.9804H42.761V9.28116L44.0947 7.18795H40.0342V5.31874H46.2397V5.3226ZM37.0739 13.1895V8.60531H35.5661V13.1895L36.318 14.1512L37.0739 13.1895ZM33.4765 8.60531H33.0134V6.7361H33.4765V5.15268H35.5661V6.7361H37.0739V5.15268H39.1635V6.7361H39.6266V8.60531H39.1635V13.9812L37.8892 15.7925L40.1529 18.8474H37.4261L36.2072 17.2639C35.2772 18.0943 34.2165 18.6234 33.0174 18.8474V16.6383C33.7891 16.337 34.3709 15.9972 34.7587 15.6187L33.4844 13.9774V8.60145L33.4765 8.60531Z" fill="#ff6f38"></path>
    <path data-v-9cb7b1fc="" d="M63.2465 10.9244L62.2017 12.5078V13.0756H63.4761V14.9448H62.2017V17.4358C62.2017 18.3781 61.7189 18.8493 60.7532 18.8493H58.723V17.0959H59.5343C59.7678 17.0959 59.8826 16.9839 59.8826 16.756V14.9448H58.3154V13.0756H59.8826V12.168L60.6385 10.8086H58.4341V8.93935H62.087C63.1318 9.05135 63.5156 9.71175 63.2465 10.9206M60.5791 5.20479L60.5198 6.16643H63.3019V8.03564H59.938C58.8536 8.07426 58.2758 7.65717 58.1966 6.79208L58.3114 5.20865H60.5752L60.5791 5.20479ZM55.2443 11.4883L55.0701 18.7913H53.0399L53.2734 7.98157H52.5215V6.05829H54.1441V5.15073H56.5819V6.05829H57.975V7.98157H55.3076V9.565H56.2376C57.3576 9.565 57.9394 10.2061 57.979 11.4883V17.7718C57.979 18.4862 57.5911 18.8454 56.8194 18.8454H55.8894V11.4883H55.2522H55.2443ZM49.5018 6.50629C49.5018 6.16643 49.6364 5.88451 49.9094 5.65665C50.1786 5.39403 50.4912 5.25886 50.8395 5.25886C51.1877 5.25886 51.4767 5.39017 51.7101 5.65665C51.9793 5.88451 52.1178 6.16643 52.1178 6.50629C52.1178 6.88476 51.9832 7.186 51.7101 7.41386C51.4767 7.67647 51.1877 7.81165 50.8395 7.81165C50.4912 7.81165 50.1825 7.68033 49.9094 7.41386C49.6403 7.186 49.5018 6.88476 49.5018 6.50629ZM51.7062 18.8454H49.4424L50.3685 14.2033C50.602 12.5426 50.3092 11.523 49.4978 11.1484V8.71536C52.0109 9.24445 52.9766 11.3763 52.3988 15.1108L51.7022 18.8454H51.7062Z" fill="#ff6f38"></path>
    <path data-v-9cb7b1fc="" d="M74.3081 9.33714H72.3926V7.41386H73.9598L73.4968 5.15073H75.99L76.4531 7.41386H77.6126L77.0902 5.32066H79.354L79.9912 7.98158C79.8764 8.88529 79.4094 9.341 78.5981 9.341H76.8013L77.6126 12.1719L79.9318 10.3606V13.2455L78.424 14.3771L79.817 18.8493H77.3238L76.2789 15.9064L73.1485 17.9456V15.2846L75.527 13.5313L74.3081 9.341V9.33714ZM72.5113 6.95814L72.163 8.08971L70.4217 13.4116L72.9743 18.7875H70.5365L69.3769 16.2965L68.6804 18.0498C68.526 18.5789 68.1778 18.8029 67.6356 18.7295H65.9536L67.9838 13.5236L66.1277 8.31757H68.4469L69.2028 10.0169L70.1328 7.18601H66.0723V5.26272H71.1182C72.0483 5.37472 72.5113 5.94244 72.5113 6.96201" fill="#ff6f38"></path>
</svg>